<?xml version="1.0" encoding="UTF-8"?>
<!DOCTYPE svg PUBLIC "-//W3C//DTD SVG 1.1//EN" "http://www.w3.org/Graphics/SVG/1.1/DTD/svg11.dtd">
<svg xmlns="http://www.w3.org/2000/svg" version="1.1" width="360px" height="100px" style="shape-rendering:geometricPrecision; text-rendering:geometricPrecision; image-rendering:optimizeQuality; fill-rule:evenodd; clip-rule:evenodd" xmlns:xlink="http://www.w3.org/1999/xlink">
<g><path style="opacity:0.843" fill="#8684c0" d="M 50.5,18.5 C 50.1667,17.1667 49.8333,17.1667 49.5,18.5C 49.5,19.5 49.5,20.5 49.5,21.5C 48.1667,21.5 46.8333,21.5 45.5,21.5C 46.3984,20.8423 47.3984,20.1757 48.5,19.5C 47.276,17.1608 47.276,14.8275 48.5,12.5C 49.8333,12.8333 51.1667,13.1667 52.5,13.5C 51.1667,14.5 51.1667,15.5 52.5,16.5C 52.1445,17.5223 51.4778,18.189 50.5,18.5 Z"/></g>
<g><path style="opacity:1" fill="#0b07f6" d="M 140.5,21.5 C 139.501,30.8239 138.501,40.1572 137.5,49.5C 137.846,52.5755 138.512,55.5755 139.5,58.5C 139.272,60.2073 138.938,61.874 138.5,63.5C 127.833,63.5 117.167,63.5 106.5,63.5C 106.5,61.5 106.5,59.5 106.5,57.5C 108.179,57.7148 109.179,57.0481 109.5,55.5C 109.739,53.5328 109.406,51.6995 108.5,50C 104.514,49.5012 100.514,49.3345 96.5,49.5C 95.0349,54.5621 93.3682,59.5621 91.5,64.5C 90.8902,65.391 90.5569,66.391 90.5,67.5C 90.5,67.8333 90.5,68.1667 90.5,68.5C 90.5,68.8333 90.5,69.1667 90.5,69.5C 90.5,70.5 90.5,71.5 90.5,72.5C 89.596,73.209 89.2627,74.209 89.5,75.5C 84.8333,75.5 80.1667,75.5 75.5,75.5C 75.5,73.1667 75.5,70.8333 75.5,68.5C 76.5676,67.5655 77.901,67.2322 79.5,67.5C 83.7305,55.199 88.3971,43.0324 93.5,31C 93.1639,29.9701 92.4972,29.4701 91.5,29.5C 91.2436,27.2075 91.5769,25.0408 92.5,23C 101.494,22.5002 110.494,22.3336 119.5,22.5C 119.5,24.5 119.5,26.5 119.5,28.5C 118.167,28.5 116.833,28.5 115.5,28.5C 115.159,32.1595 115.825,35.4928 117.5,38.5C 118.699,44.1081 119.699,49.7747 120.5,55.5C 122.5,55.5 124.5,55.5 126.5,55.5C 128.078,50.4174 128.745,45.084 128.5,39.5C 128.5,37.8333 128.5,36.1667 128.5,34.5C 129.451,33.0813 129.784,31.4147 129.5,29.5C 128.5,29.5 127.5,29.5 126.5,29.5C 126.5,26.8333 126.5,24.1667 126.5,21.5C 131.167,21.5 135.833,21.5 140.5,21.5 Z M 119.5,32.5 C 121.833,32.5 124.167,32.5 126.5,32.5C 124.776,59.0463 122.443,59.0463 119.5,32.5 Z"/></g>
<g><path style="opacity:1" fill="#0f09f6" d="M 203.5,27.5 C 203.5,30.8333 203.5,34.1667 203.5,37.5C 208.141,36.8734 212.807,36.5401 217.5,36.5C 221.805,37.1529 224.805,39.4862 226.5,43.5C 228.16,48.5454 227.494,53.2121 224.5,57.5C 222.279,60.6228 219.279,62.7895 215.5,64C 202.291,66.6398 195.291,61.1398 194.5,47.5C 190.571,48.4328 186.571,48.7662 182.5,48.5C 182.552,50.9029 182.219,53.2362 181.5,55.5C 182.209,56.404 183.209,56.7373 184.5,56.5C 184.5,58.8333 184.5,61.1667 184.5,63.5C 178.5,63.5 172.5,63.5 166.5,63.5C 166.5,61.1667 166.5,58.8333 166.5,56.5C 167.568,55.5655 168.901,55.2322 170.5,55.5C 171.276,48.5112 171.943,41.5112 172.5,34.5C 173.451,33.0813 173.784,31.4147 173.5,29.5C 172.167,29.5 170.833,29.5 169.5,29.5C 169.5,26.8333 169.5,24.1667 169.5,21.5C 178.839,21.3335 188.173,21.5002 197.5,22C 200.641,22.7146 202.641,24.5479 203.5,27.5 Z M 211.5,47.5 C 213.273,48.3143 213.773,49.6476 213,51.5C 211.989,52.3366 210.822,52.67 209.5,52.5C 209.365,50.4458 210.032,48.7791 211.5,47.5 Z M 186.5,32.5 C 191.244,32.0384 192.244,33.5384 189.5,37C 188.552,37.4828 187.552,37.6495 186.5,37.5C 186.5,35.8333 186.5,34.1667 186.5,32.5 Z"/></g>
<g><path style="opacity:1" fill="#5855b8" d="M 49.5,18.5 C 49.8333,18.5 50.1667,18.5 50.5,18.5C 51.0577,19.7899 52.0577,20.6232 53.5,21C 66.6456,23.9775 73.9789,32.1442 75.5,45.5C 75.5,46.1667 75.5,46.8333 75.5,47.5C 74.1437,59.9281 67.477,67.5948 55.5,70.5C 53.2326,70.8545 51.8993,70.5211 51.5,69.5C 56.9937,69.2308 61.6604,67.2308 65.5,63.5C 65.0431,62.7025 64.3764,62.3691 63.5,62.5C 64.2905,61.5987 65.2905,60.9321 66.5,60.5C 67.1894,61.7736 68.0228,61.7736 69,60.5C 71.5612,56.5162 73.0612,52.1828 73.5,47.5C 66.9232,46.5008 59.5898,46.1674 51.5,46.5C 57.5,45.8333 63.5,45.1667 69.5,44.5C 70.1667,44.5 70.8333,44.5 71.5,44.5C 72.4972,44.5299 73.1639,44.0299 73.5,43C 72.6584,38.6509 70.9917,34.6509 68.5,31C 67.184,30.4719 66.5173,30.9719 66.5,32.5C 65.3523,31.105 64.3523,31.2716 63.5,33C 64.4158,33.2784 65.0825,33.7784 65.5,34.5C 62.5468,35.7872 60.2135,37.7872 58.5,40.5C 57.5,40.8333 56.8333,41.5 56.5,42.5C 54.5214,44.1675 52.188,44.8342 49.5,44.5C 49.5,37.1667 49.5,29.8333 49.5,22.5C 43.7014,22.568 38.7014,24.568 34.5,28.5C 34.9569,29.2975 35.6236,29.6309 36.5,29.5C 35.7095,30.4013 34.7095,31.0679 33.5,31.5C 33.1034,30.475 32.4368,30.3083 31.5,31C 28.0006,34.8302 26.334,39.3302 26.5,44.5C 25.8333,44.5 25.1667,44.5 24.5,44.5C 25.6056,31.3964 32.6056,23.7297 45.5,21.5C 46.8333,21.5 48.1667,21.5 49.5,21.5C 49.5,20.5 49.5,19.5 49.5,18.5 Z M 46.5,27.5 C 46.4512,31.0781 45.7846,34.4115 44.5,37.5C 42.1415,35.4707 39.8082,33.4707 37.5,31.5C 40.3821,29.8921 43.3821,28.5587 46.5,27.5 Z M 61.5,31.5 C 59.7656,34.2003 57.4323,36.2003 54.5,37.5C 54.7373,36.209 54.404,35.209 53.5,34.5C 53.162,31.9885 53.162,29.6552 53.5,27.5C 56.4724,28.3195 59.1391,29.6529 61.5,31.5 Z M 34.5,34.5 C 35.2389,34.369 35.9056,34.5357 36.5,35C 38.0544,37.2869 39.7211,39.4535 41.5,41.5C 38.4466,41.9107 35.4466,42.5774 32.5,43.5C 32.1667,43 31.8333,42.5 31.5,42C 32.222,39.3226 33.222,36.8226 34.5,34.5 Z M 65.5,34.5 C 66.6552,37.4569 67.6552,40.4569 68.5,43.5C 64.9752,42.7903 61.6418,41.7903 58.5,40.5C 60.2135,37.7872 62.5468,35.7872 65.5,34.5 Z"/></g>
<g><path style="opacity:1" fill="#d3d2e3" d="M 51.5,22.5 C 56.8779,22.856 61.5445,24.856 65.5,28.5C 65.0431,29.2975 64.3764,29.6309 63.5,29.5C 60.3207,26.9135 56.6541,25.4135 52.5,25C 51.7476,24.3292 51.4142,23.4959 51.5,22.5 Z"/></g>
<g><path style="opacity:1" fill="#2e21d5" d="M 51.5,22.5 C 51.4142,23.4959 51.7476,24.3292 52.5,25C 56.6541,25.4135 60.3207,26.9135 63.5,29.5C 63.6716,30.4916 63.3382,31.1583 62.5,31.5C 62.1667,31.5 61.8333,31.5 61.5,31.5C 59.1391,29.6529 56.4724,28.3195 53.5,27.5C 53.162,29.6552 53.162,31.9885 53.5,34.5C 54.0841,37.9828 53.2508,40.9828 51,43.5C 50.1834,35.7491 50.3501,28.7491 51.5,22.5 Z"/></g>
<g><path style="opacity:0.851" fill="#3f30ce" d="M 48.5,27.5 C 47.8333,27.5 47.1667,27.5 46.5,27.5C 43.3821,28.5587 40.3821,29.8921 37.5,31.5C 36.5,31.8333 35.8333,32.5 35.5,33.5C 34.8333,33.5 34.5,33.8333 34.5,34.5C 33.222,36.8226 32.222,39.3226 31.5,42C 31.8333,42.5 32.1667,43 32.5,43.5C 35.4466,42.5774 38.4466,41.9107 41.5,41.5C 42.4916,41.3284 43.1583,41.6618 43.5,42.5C 40.1888,42.883 37.1888,43.883 34.5,45.5C 30.9581,45.8128 27.6248,45.4794 24.5,44.5C 25.1667,44.5 25.8333,44.5 26.5,44.5C 28.4999,40.178 30.8333,35.8446 33.5,31.5C 34.7095,31.0679 35.7095,30.4013 36.5,29.5C 39.7679,26.2935 43.7679,24.6268 48.5,24.5C 48.5,25.5 48.5,26.5 48.5,27.5 Z"/></g>
<g><path style="opacity:0.345" fill="#8c8cbe" d="M 46.5,27.5 C 47.1667,27.5 47.8333,27.5 48.5,27.5C 47.7255,31.814 47.0588,36.1474 46.5,40.5C 45.5987,39.7095 44.9321,38.7095 44.5,37.5C 45.7846,34.4115 46.4512,31.0781 46.5,27.5 Z"/></g>
<g><path style="opacity:1" fill="#d1d1e3" d="M 71.5,44.5 C 70.9325,40.0329 69.2658,36.0329 66.5,32.5C 66.5173,30.9719 67.184,30.4719 68.5,31C 70.9917,34.6509 72.6584,38.6509 73.5,43C 73.1639,44.0299 72.4972,44.5299 71.5,44.5 Z"/></g>
<g><path style="opacity:1" fill="#d5d4e3" d="M 33.5,31.5 C 30.8333,35.8446 28.4999,40.178 26.5,44.5C 26.334,39.3302 28.0006,34.8302 31.5,31C 32.4368,30.3083 33.1034,30.475 33.5,31.5 Z"/></g>
<g><path style="opacity:1" fill="#130cf1" d="M 318.5,64.5 C 314.055,65.9037 309.721,65.5703 305.5,63.5C 303.5,63.5 301.5,63.5 299.5,63.5C 299.5,61.1667 299.5,58.8333 299.5,56.5C 301.5,56.5 303.5,56.5 305.5,56.5C 307.545,58.9844 310.212,59.9844 313.5,59.5C 313.5,58.1667 313.5,56.8333 313.5,55.5C 308.88,54.9058 304.713,53.2391 301,50.5C 298.268,44.441 299.768,39.6077 305.5,36C 312.216,35.6254 318.882,36.1254 325.5,37.5C 324.626,39.7466 324.292,42.0799 324.5,44.5C 322.076,44.8076 319.743,44.4742 317.5,43.5C 315.212,39.8258 312.878,39.6592 310.5,43C 310.645,43.772 310.978,44.4387 311.5,45C 315.243,46.1365 318.91,47.4698 322.5,49C 325.985,55.468 324.652,60.6347 318.5,64.5 Z"/></g>
<g><path style="opacity:0.251" fill="#aeadd1" d="M 34.5,34.5 C 34.5,33.8333 34.8333,33.5 35.5,33.5C 39.7706,36.1009 43.4372,39.4342 46.5,43.5C 45.391,43.4431 44.391,43.1098 43.5,42.5C 43.1583,41.6618 42.4916,41.3284 41.5,41.5C 39.7211,39.4535 38.0544,37.2869 36.5,35C 35.9056,34.5357 35.2389,34.369 34.5,34.5 Z"/></g>
<g><path style="opacity:0.282" fill="#acaace" d="M 61.5,31.5 C 61.8333,31.5 62.1667,31.5 62.5,31.5C 60.5658,34.7727 58.2325,37.7727 55.5,40.5C 54.6143,39.675 54.281,38.675 54.5,37.5C 57.4323,36.2003 59.7656,34.2003 61.5,31.5 Z"/></g>
<g><path style="opacity:1" fill="#4132cb" d="M 66.5,32.5 C 69.2658,36.0329 70.9325,40.0329 71.5,44.5C 70.8333,44.5 70.1667,44.5 69.5,44.5C 69.1667,44.5 68.8333,44.5 68.5,44.5C 68.5,44.1667 68.5,43.8333 68.5,43.5C 67.6552,40.4569 66.6552,37.4569 65.5,34.5C 65.0825,33.7784 64.4158,33.2784 63.5,33C 64.3523,31.2716 65.3523,31.105 66.5,32.5 Z"/></g>
<g><path style="opacity:1" fill="#9797bf" d="M 58.5,40.5 C 61.6418,41.7903 64.9752,42.7903 68.5,43.5C 68.5,43.8333 68.5,44.1667 68.5,44.5C 64.3425,44.6684 60.3425,44.0017 56.5,42.5C 56.8333,41.5 57.5,40.8333 58.5,40.5 Z"/></g>
<g><path style="opacity:1" fill="#0403ec" d="M 43.5,42.5 C 44.391,43.1098 45.391,43.4431 46.5,43.5C 46.6107,44.1174 46.944,44.6174 47.5,45C 43.1794,45.499 38.8461,45.6657 34.5,45.5C 37.1888,43.883 40.1888,42.883 43.5,42.5 Z"/></g>
<g><path style="opacity:1" fill="#7e7ebe" d="M 22.5,45.5 C 22.5,45.8333 22.5,46.1667 22.5,46.5C 21.8485,47.0906 21.1818,47.7573 20.5,48.5C 19.5,47.1667 18.5,47.1667 17.5,48.5C 16.0495,47.3446 15.0495,45.8446 14.5,44C 15.8333,43.8333 17.1667,43.6667 18.5,43.5C 20.3328,43.5854 21.6661,44.2521 22.5,45.5 Z"/></g>
<g><path style="opacity:1" fill="#5350cd" d="M 37.5,31.5 C 39.8082,33.4707 42.1415,35.4707 44.5,37.5C 44.9321,38.7095 45.5987,39.7095 46.5,40.5C 48.0808,42.1417 48.7475,44.1417 48.5,46.5C 41.8333,46.5 35.1667,46.5 28.5,46.5C 26.5,46.5 24.5,46.5 22.5,46.5C 22.5,46.1667 22.5,45.8333 22.5,45.5C 23.1667,45.1667 23.8333,44.8333 24.5,44.5C 27.6248,45.4794 30.9581,45.8128 34.5,45.5C 38.8461,45.6657 43.1794,45.499 47.5,45C 46.944,44.6174 46.6107,44.1174 46.5,43.5C 43.4372,39.4342 39.7706,36.1009 35.5,33.5C 35.8333,32.5 36.5,31.8333 37.5,31.5 Z"/></g>
<g><path style="opacity:0.965" fill="#7b7db7" d="M 75.5,47.5 C 75.5,46.8333 75.5,46.1667 75.5,45.5C 77.3914,45.1717 78.8914,44.505 80,43.5C 80.8333,43.8333 81.6667,44.1667 82.5,44.5C 81.1667,45.5 81.1667,46.5 82.5,47.5C 80.1889,48.5751 77.8555,48.5751 75.5,47.5 Z"/></g>
<g><path style="opacity:1" fill="#d3d2de" d="M 56.5,42.5 C 60.3425,44.0017 64.3425,44.6684 68.5,44.5C 68.8333,44.5 69.1667,44.5 69.5,44.5C 63.5,45.1667 57.5,45.8333 51.5,46.5C 49.6943,47.0241 48.0276,47.6908 46.5,48.5C 45.391,48.5569 44.391,48.8902 43.5,49.5C 39.1667,48.8333 34.8333,48.1667 30.5,47.5C 29.8333,47.5 29.1667,47.5 28.5,47.5C 28.5,47.1667 28.5,46.8333 28.5,46.5C 35.1667,46.5 41.8333,46.5 48.5,46.5C 48.7475,44.1417 48.0808,42.1417 46.5,40.5C 47.0588,36.1474 47.7255,31.814 48.5,27.5C 48.5,26.5 48.5,25.5 48.5,24.5C 43.7679,24.6268 39.7679,26.2935 36.5,29.5C 35.6236,29.6309 34.9569,29.2975 34.5,28.5C 38.7014,24.568 43.7014,22.568 49.5,22.5C 49.5,29.8333 49.5,37.1667 49.5,44.5C 52.188,44.8342 54.5214,44.1675 56.5,42.5 Z"/></g>
<g><path style="opacity:1" fill="#271cdb" d="M 51.5,46.5 C 59.5898,46.1674 66.9232,46.5008 73.5,47.5C 71.7986,48.2114 70.7986,49.5447 70.5,51.5C 69.8333,50.5 69.1667,49.5 68.5,48.5C 65.2365,49.4822 61.9032,50.1489 58.5,50.5C 55.6737,50.0023 53.3403,48.6689 51.5,46.5 Z"/></g>
<g><path style="opacity:0.243" fill="#8d8dbf" d="M 30.5,47.5 C 34.8333,48.1667 39.1667,48.8333 43.5,49.5C 43.1667,50.5 42.5,51.1667 41.5,51.5C 38.4112,50.5717 35.2445,49.5717 32,48.5C 31.5357,49.0944 31.369,49.7611 31.5,50.5C 30.596,49.791 30.2627,48.791 30.5,47.5 Z"/></g>
<g><path style="opacity:1" fill="#b0acbd" d="M 208.5,45.5 C 216.877,45.2743 218.544,48.441 213.5,55C 206.261,55.1811 204.594,52.0145 208.5,45.5 Z M 211.5,47.5 C 210.032,48.7791 209.365,50.4458 209.5,52.5C 210.822,52.67 211.989,52.3366 213,51.5C 213.773,49.6476 213.273,48.3143 211.5,47.5 Z"/></g>
<g><path style="opacity:0.545" fill="#adaab3" d="M 267.5,33.5 C 269.527,33.3379 271.527,33.5045 273.5,34C 271.618,34.1981 269.952,34.6981 268.5,35.5C 266.566,36.1103 264.899,37.1103 263.5,38.5C 258.391,36.7239 253.058,36.0573 247.5,36.5C 247.5,37.8333 247.5,39.1667 247.5,40.5C 246.069,41.7804 245.402,43.4471 245.5,45.5C 246.5,45.5 247.5,45.5 248.5,45.5C 248.802,48.0593 248.468,50.3926 247.5,52.5C 247.5,50.8333 247.5,49.1667 247.5,47.5C 246.5,47.5 245.5,47.5 244.5,47.5C 244.634,49.2915 244.301,50.9582 243.5,52.5C 242.972,47.9234 242.972,42.0901 243.5,35C 238.5,34.3333 233.5,34.3333 228.5,35C 227.872,37.9386 227.205,40.7719 226.5,43.5C 224.805,39.4862 221.805,37.1529 217.5,36.5C 213.301,35.506 208.967,35.3393 204.5,36C 205.784,32.9358 205.451,30.1025 203.5,27.5C 202.641,24.5479 200.641,22.7146 197.5,22C 188.173,21.5002 178.839,21.3335 169.5,21.5C 169.5,24.1667 169.5,26.8333 169.5,29.5C 170.209,30.404 171.209,30.7373 172.5,30.5C 172.5,31.8333 172.5,33.1667 172.5,34.5C 171.943,41.5112 171.276,48.5112 170.5,55.5C 168.901,55.2322 167.568,55.5655 166.5,56.5C 165.527,58.9479 165.194,61.6146 165.5,64.5C 172.167,64.5 178.833,64.5 185.5,64.5C 185.5,61.5 185.5,58.5 185.5,55.5C 184.167,55.5 182.833,55.5 181.5,55.5C 182.219,53.2362 182.552,50.9029 182.5,48.5C 186.571,48.7662 190.571,48.4328 194.5,47.5C 195.291,61.1398 202.291,66.6398 215.5,64C 219.279,62.7895 222.279,60.6228 224.5,57.5C 223.878,60.4554 224.211,63.4554 225.5,66.5C 180.615,67.1533 135.948,66.4867 91.5,64.5C 93.3682,59.5621 95.0349,54.5621 96.5,49.5C 100.514,49.3345 104.514,49.5012 108.5,50C 109.406,51.6995 109.739,53.5328 109.5,55.5C 108.178,55.33 107.011,55.6634 106,56.5C 105.503,59.146 105.336,61.8127 105.5,64.5C 116.679,64.8279 127.679,64.4946 138.5,63.5C 138.938,61.874 139.272,60.2073 139.5,58.5C 138.512,55.5755 137.846,52.5755 137.5,49.5C 138.501,40.1572 139.501,30.8239 140.5,21.5C 135.695,20.5128 130.695,20.1795 125.5,20.5C 124.833,23.8333 124.167,27.1667 123.5,30.5C 125.167,30.5 126.833,30.5 128.5,30.5C 128.5,31.8333 128.5,33.1667 128.5,34.5C 128.5,36.1667 128.5,37.8333 128.5,39.5C 127.194,44.6161 126.527,49.9494 126.5,55.5C 124.5,55.5 122.5,55.5 120.5,55.5C 119.699,49.7747 118.699,44.1081 117.5,38.5C 117.167,35.8333 116.833,33.1667 116.5,30.5C 117.822,30.67 118.989,30.3366 120,29.5C 120.497,26.854 120.664,24.1873 120.5,21.5C 110.5,21.5 100.5,21.5 90.5,21.5C 90.1936,24.3854 90.5269,27.0521 91.5,29.5C 92.4972,29.4701 93.1639,29.9701 93.5,31C 88.3971,43.0324 83.7305,55.199 79.5,67.5C 77.901,67.2322 76.5676,67.5655 75.5,68.5C 74.5386,70.2646 74.2053,72.2646 74.5,74.5C 73.6618,74.8417 73.3284,75.5084 73.5,76.5C 72.8333,76.1667 72.1667,75.8333 71.5,75.5C 72.0508,72.1933 72.3841,68.8599 72.5,65.5C 76.224,65.9498 78.3907,64.2832 79,60.5C 82.4283,51.1459 86.2616,41.9793 90.5,33C 89.552,32.5172 88.552,32.3505 87.5,32.5C 87.6686,27.8189 88.0019,23.1522 88.5,18.5C 113.176,18.1669 137.842,18.5002 162.5,19.5C 160.803,30.7766 159.469,42.1099 158.5,53.5C 159.5,53.5 160.5,53.5 161.5,53.5C 160.387,57.5065 160.387,61.5065 161.5,65.5C 162.815,61.6074 163.482,57.6074 163.5,53.5C 165.144,53.7135 166.644,53.3802 168,52.5C 168.944,45.8372 169.777,39.1705 170.5,32.5C 169.167,32.5 167.833,32.5 166.5,32.5C 166.669,27.8189 167.002,23.1522 167.5,18.5C 177.506,18.3335 187.506,18.5002 197.5,19C 203.951,21.782 207.785,26.6154 209,33.5C 215.233,31.6299 220.733,32.9632 225.5,37.5C 227.989,32.1767 229.322,26.51 229.5,20.5C 235.5,20.5 241.5,20.5 247.5,20.5C 246.92,24.81 246.586,29.1434 246.5,33.5C 253.5,33.5 260.5,33.5 267.5,33.5 Z M 98.5,52.5 C 101.187,52.3359 103.854,52.5026 106.5,53C 105.552,53.4828 104.552,53.6495 103.5,53.5C 103.048,57.1629 102.548,60.8296 102,64.5C 99.6194,65.435 97.1194,65.7683 94.5,65.5C 95.8292,61.1782 97.1625,56.8449 98.5,52.5 Z M 191.5,50.5 C 192.694,56.0478 195.361,60.8811 199.5,65C 195.309,65.9216 191.309,65.5882 187.5,64C 188.167,60.6667 188.833,57.3333 189.5,54C 187.744,53.7978 186.078,53.2978 184.5,52.5C 186.969,51.8319 189.302,51.1653 191.5,50.5 Z M 211.5,47.5 C 210.032,48.7791 209.365,50.4458 209.5,52.5C 210.822,52.67 211.989,52.3366 213,51.5C 213.773,49.6476 213.273,48.3143 211.5,47.5 Z M 141.5,32.5 C 142.5,32.5 143.5,32.5 144.5,32.5C 144.126,39.5322 143.459,46.5322 142.5,53.5C 141.5,53.5 140.5,53.5 139.5,53.5C 140.605,46.5509 141.272,39.5509 141.5,32.5 Z M 119.5,32.5 C 122.443,59.0463 124.776,59.0463 126.5,32.5C 124.167,32.5 121.833,32.5 119.5,32.5 Z M 186.5,32.5 C 186.5,34.1667 186.5,35.8333 186.5,37.5C 187.552,37.6495 188.552,37.4828 189.5,37C 192.244,33.5384 191.244,32.0384 186.5,32.5 Z"/></g>
<g><path style="opacity:1" fill="#4c40d6" d="M 128.5,39.5 C 128.745,45.084 128.078,50.4174 126.5,55.5C 126.527,49.9494 127.194,44.6161 128.5,39.5 Z"/></g>
<g><path style="opacity:1" fill="#b4b0c5" d="M 104.5,29.5 C 106.26,33.5465 107.26,37.8799 107.5,42.5C 104.753,42.8134 102.086,42.48 99.5,41.5C 101.182,37.4742 102.848,33.4742 104.5,29.5 Z"/></g>
<g><path style="opacity:1" fill="#352cd9" d="M 203.5,27.5 C 205.451,30.1025 205.784,32.9358 204.5,36C 208.967,35.3393 213.301,35.506 217.5,36.5C 212.807,36.5401 208.141,36.8734 203.5,37.5C 203.5,34.1667 203.5,30.8333 203.5,27.5 Z"/></g>
<g><path style="opacity:1" fill="#5755d3" d="M 190.5,30.5 C 188.5,30.5 186.5,30.5 184.5,30.5C 184.768,32.099 184.434,33.4324 183.5,34.5C 183.5,32.8333 183.5,31.1667 183.5,29.5C 186.059,29.1984 188.393,29.5318 190.5,30.5 Z"/></g>
<g><path style="opacity:1" fill="#5c67d6" d="M 231.5,26.5 C 231.5,28.1667 231.5,29.8333 231.5,31.5C 235.5,31.5 239.5,31.5 243.5,31.5C 239.366,32.4849 235.032,32.8182 230.5,32.5C 230.205,30.2646 230.539,28.2646 231.5,26.5 Z"/></g>
<g><path style="opacity:1" fill="#b4b2bd" d="M 190.5,30.5 C 191.496,30.4142 192.329,30.7476 193,31.5C 193.994,38.6707 190.827,41.6707 183.5,40.5C 183.5,38.5 183.5,36.5 183.5,34.5C 184.434,33.4324 184.768,32.099 184.5,30.5C 186.5,30.5 188.5,30.5 190.5,30.5 Z M 186.5,32.5 C 186.5,34.1667 186.5,35.8333 186.5,37.5C 187.552,37.6495 188.552,37.4828 189.5,37C 192.244,33.5384 191.244,32.0384 186.5,32.5 Z"/></g>
<g><path style="opacity:1" fill="#8282da" d="M 169.5,29.5 C 170.833,29.5 172.167,29.5 173.5,29.5C 173.784,31.4147 173.451,33.0813 172.5,34.5C 172.5,33.1667 172.5,31.8333 172.5,30.5C 171.209,30.7373 170.209,30.404 169.5,29.5 Z"/></g>
<g><path style="opacity:1" fill="#a29cc9" d="M 140.5,21.5 C 135.833,21.5 131.167,21.5 126.5,21.5C 126.5,24.1667 126.5,26.8333 126.5,29.5C 127.5,29.5 128.5,29.5 129.5,29.5C 129.784,31.4147 129.451,33.0813 128.5,34.5C 128.5,33.1667 128.5,31.8333 128.5,30.5C 126.833,30.5 125.167,30.5 123.5,30.5C 124.167,27.1667 124.833,23.8333 125.5,20.5C 130.695,20.1795 135.695,20.5128 140.5,21.5 Z"/></g>
<g><path style="opacity:1" fill="#0201f6" d="M 243.5,27.5 C 243.5,28.8333 243.5,30.1667 243.5,31.5C 239.5,31.5 235.5,31.5 231.5,31.5C 231.5,29.8333 231.5,28.1667 231.5,26.5C 231.5,25.8333 231.5,25.1667 231.5,24.5C 235.4,23.5701 239.4,23.2367 243.5,23.5C 243.5,24.8333 243.5,26.1667 243.5,27.5 Z"/></g>
<g><path style="opacity:1" fill="#3845d5" d="M 243.5,27.5 C 243.5,26.1667 243.5,24.8333 243.5,23.5C 239.4,23.2367 235.4,23.5701 231.5,24.5C 235.373,22.5698 239.706,21.9031 244.5,22.5C 244.784,24.4147 244.451,26.0813 243.5,27.5 Z"/></g>
<g><path style="opacity:1" fill="#0d09f4" d="M 145.5,21.5 C 149.833,21.5 154.167,21.5 158.5,21.5C 158.5,22.8333 158.5,24.1667 158.5,25.5C 157.534,32.7962 156.867,40.1296 156.5,47.5C 155.842,48.7933 155.508,50.2933 155.5,52C 156.732,56.0911 157.399,60.2578 157.5,64.5C 151.833,64.5 146.167,64.5 140.5,64.5C 140.508,61.4552 140.841,58.4552 141.5,55.5C 142.5,55.5 143.5,55.5 144.5,55.5C 145.895,46.8863 146.895,38.2196 147.5,29.5C 146.5,29.5 145.5,29.5 144.5,29.5C 144.194,26.6146 144.527,23.9479 145.5,21.5 Z"/></g>
<g><path style="opacity:1" fill="#1f19dd" d="M 117.5,38.5 C 115.825,35.4928 115.159,32.1595 115.5,28.5C 116.833,28.5 118.167,28.5 119.5,28.5C 119.5,26.5 119.5,24.5 119.5,22.5C 110.494,22.3336 101.494,22.5002 92.5,23C 91.5769,25.0408 91.2436,27.2075 91.5,29.5C 90.5269,27.0521 90.1936,24.3854 90.5,21.5C 100.5,21.5 110.5,21.5 120.5,21.5C 120.664,24.1873 120.497,26.854 120,29.5C 118.989,30.3366 117.822,30.67 116.5,30.5C 116.833,33.1667 117.167,35.8333 117.5,38.5 Z"/></g>
<g><path style="opacity:1" fill="#8886d2" d="M 145.5,21.5 C 149.97,20.5139 154.637,20.1805 159.5,20.5C 159.784,22.4147 159.451,24.0813 158.5,25.5C 158.5,24.1667 158.5,22.8333 158.5,21.5C 154.167,21.5 149.833,21.5 145.5,21.5 Z"/></g>
<g><path style="opacity:1" fill="#8e8dcd" d="M 51.5,46.5 C 53.3403,48.6689 55.6737,50.0023 58.5,50.5C 59.8779,53.8781 62.2112,56.2114 65.5,57.5C 64.9976,59.0847 63.9976,59.5847 62.5,59C 59.3333,55.8333 56.1667,52.6667 53,49.5C 52.6012,49.7284 52.4346,50.0618 52.5,50.5C 51.7784,50.0825 51.2784,49.4158 51,48.5C 50.1816,54.3487 50.3483,60.0154 51.5,65.5C 51.3284,66.4916 51.6618,67.1583 52.5,67.5C 52.1667,68.1667 51.8333,68.8333 51.5,69.5C 51.8993,70.5211 53.2326,70.8545 55.5,70.5C 54.1225,71.2344 52.6225,71.9011 51,72.5C 52.3519,74.3264 52.8519,76.3264 52.5,78.5C 50.1496,81.0416 48.483,80.5416 47.5,77C 47.7549,75.6739 48.4216,74.6739 49.5,74C 48.7476,73.3292 48.4142,72.4959 48.5,71.5C 49.6557,64.0113 49.8223,56.3446 49,48.5C 46.7355,49.9158 45.5688,51.9158 45.5,54.5C 42.8159,56.1933 40.1492,57.86 37.5,59.5C 40.8782,56.1239 43.8782,52.4572 46.5,48.5C 48.0276,47.6908 49.6943,47.0241 51.5,46.5 Z"/></g>
<g><path style="opacity:0.529" fill="#b1aebe" d="M 324.5,62.5 C 324.565,62.0618 324.399,61.7284 324,61.5C 322.736,63.607 320.903,64.607 318.5,64.5C 324.652,60.6347 325.985,55.468 322.5,49C 318.91,47.4698 315.243,46.1365 311.5,45C 310.978,44.4387 310.645,43.772 310.5,43C 312.878,39.6592 315.212,39.8258 317.5,43.5C 319.743,44.4742 322.076,44.8076 324.5,44.5C 324.292,42.0799 324.626,39.7466 325.5,37.5C 318.882,36.1254 312.216,35.6254 305.5,36C 299.768,39.6077 298.268,44.441 301,50.5C 304.713,53.2391 308.88,54.9058 313.5,55.5C 313.5,56.8333 313.5,58.1667 313.5,59.5C 310.212,59.9844 307.545,58.9844 305.5,56.5C 303.393,55.5318 301.059,55.1984 298.5,55.5C 298.5,58.5 298.5,61.5 298.5,64.5C 300.5,64.5 302.5,64.5 304.5,64.5C 298.167,65.8333 291.833,65.8333 285.5,64.5C 288.833,64.5 292.167,64.5 295.5,64.5C 295.5,61.5 295.5,58.5 295.5,55.5C 294.5,55.5 293.5,55.5 292.5,55.5C 292.335,52.4816 292.502,49.4816 293,46.5C 294.049,44.8934 295.549,44.2267 297.5,44.5C 297.5,41.8333 297.5,39.1667 297.5,36.5C 296.5,36.5 295.5,36.5 294.5,36.5C 294.46,33.1194 294.793,29.7861 295.5,26.5C 292.15,26.335 288.817,26.5017 285.5,27C 284.549,30.0567 284.216,33.2234 284.5,36.5C 283.167,36.5 281.833,36.5 280.5,36.5C 279.964,39.6981 280.631,42.3647 282.5,44.5C 282.24,50.172 281.907,55.8387 281.5,61.5C 280.766,62.7079 280.433,64.0413 280.5,65.5C 262.326,65.8301 244.326,65.4968 226.5,64.5C 225.833,62.1667 225.167,59.8333 224.5,57.5C 227.494,53.2121 228.16,48.5454 226.5,43.5C 227.205,40.7719 227.872,37.9386 228.5,35C 233.5,34.3333 238.5,34.3333 243.5,35C 242.972,42.0901 242.972,47.9234 243.5,52.5C 244.833,53.8333 246.167,53.8333 247.5,52.5C 248.468,50.3926 248.802,48.0593 248.5,45.5C 247.5,45.5 246.5,45.5 245.5,45.5C 245.402,43.4471 246.069,41.7804 247.5,40.5C 247.5,41.8333 247.5,43.1667 247.5,44.5C 248.5,44.5 249.5,44.5 250.5,44.5C 250.5,46.5 250.5,48.5 250.5,50.5C 249.549,51.9187 249.216,53.5853 249.5,55.5C 248.167,55.5 246.833,55.5 245.5,55.5C 245.5,58.5 245.5,61.5 245.5,64.5C 251.026,64.8214 256.36,64.4881 261.5,63.5C 262.156,62.3784 262.489,61.0451 262.5,59.5C 261.979,57.0759 261.312,54.7426 260.5,52.5C 260.5,50.5 260.5,48.5 260.5,46.5C 262.142,44.9192 264.142,44.2525 266.5,44.5C 266.5,47.5 266.5,50.5 266.5,53.5C 265.518,56.9619 265.185,60.6286 265.5,64.5C 270.167,64.5 274.833,64.5 279.5,64.5C 279.5,63.5 279.5,62.5 279.5,61.5C 279.5,59.8333 279.5,58.1667 279.5,56.5C 277.925,54.8863 277.259,52.8863 277.5,50.5C 277.666,46.1539 277.499,41.8206 277,37.5C 274.435,35.8207 271.602,35.154 268.5,35.5C 269.952,34.6981 271.618,34.1981 273.5,34C 271.527,33.5045 269.527,33.3379 267.5,33.5C 270.852,32.1152 274.185,32.4485 277.5,34.5C 278.795,33.9017 280.128,33.4017 281.5,33C 282.444,30.2809 282.777,27.4475 282.5,24.5C 287.833,24.5 293.167,24.5 298.5,24.5C 298.296,27.5176 297.963,30.5176 297.5,33.5C 298.873,33.3433 300.207,33.51 301.5,34C 300.304,34.6543 300.304,35.1543 301.5,35.5C 304.446,33.7957 307.613,32.7957 311,32.5C 316.804,33.3313 322.638,33.6646 328.5,33.5C 328.083,37.8346 327.583,42.1679 327,46.5C 326.25,47.1258 325.416,47.6258 324.5,48C 328.331,52.8409 328.331,57.6742 324.5,62.5 Z M 295.5,47.5 C 297.178,48.7471 298.511,50.4138 299.5,52.5C 298.311,53.4287 296.978,53.762 295.5,53.5C 295.5,51.5 295.5,49.5 295.5,47.5 Z M 247.5,52.5 C 246.167,53.8333 244.833,53.8333 243.5,52.5C 244.301,50.9582 244.634,49.2915 244.5,47.5C 245.5,47.5 246.5,47.5 247.5,47.5C 247.5,49.1667 247.5,50.8333 247.5,52.5 Z"/></g>
<g><path style="opacity:1" fill="#7877da" d="M 277.5,50.5 C 277.259,52.8863 277.925,54.8863 279.5,56.5C 278.5,56.5 277.5,56.5 276.5,56.5C 276.205,54.2646 276.539,52.2646 277.5,50.5 Z"/></g>
<g><path style="opacity:1" fill="#0b07f5" d="M 241.5,50.5 C 240.853,51.2739 240.52,52.2739 240.5,53.5C 240.64,55.0296 241.307,56.0296 242.5,56.5C 241.781,58.7638 241.448,61.0971 241.5,63.5C 236.5,63.5 231.5,63.5 226.5,63.5C 226.337,61.1432 226.503,58.8098 227,56.5C 228.011,55.6634 229.178,55.33 230.5,55.5C 230.552,51.8019 230.886,48.1352 231.5,44.5C 230.5,44.5 229.5,44.5 228.5,44.5C 228.5,41.8333 228.5,39.1667 228.5,36.5C 233.167,36.5 237.833,36.5 242.5,36.5C 242.167,41.1667 241.833,45.8333 241.5,50.5 Z"/></g>
<g><path style="opacity:1" fill="#0402f8" d="M 268.5,35.5 C 271.602,35.154 274.435,35.8207 277,37.5C 277.499,41.8206 277.666,46.1539 277.5,50.5C 276.539,52.2646 276.205,54.2646 276.5,56.5C 277.5,56.5 278.5,56.5 279.5,56.5C 279.5,58.1667 279.5,59.8333 279.5,61.5C 275.486,63.3342 271.153,64.0008 266.5,63.5C 266.5,60.1667 266.5,56.8333 266.5,53.5C 267.641,50.3601 267.808,47.0267 267,43.5C 265.333,42.8333 263.667,42.1667 262,41.5C 261.075,42.0465 260.242,42.7132 259.5,43.5C 260.127,44.4168 260.461,45.4168 260.5,46.5C 260.5,48.5 260.5,50.5 260.5,52.5C 259.876,52.9169 259.543,53.5836 259.5,54.5C 261.064,57.3056 261.73,60.3056 261.5,63.5C 256.5,63.5 251.5,63.5 246.5,63.5C 246.5,61.5 246.5,59.5 246.5,57.5C 247.822,57.67 248.989,57.3366 250,56.5C 250.495,54.5273 250.662,52.5273 250.5,50.5C 250.5,48.5 250.5,46.5 250.5,44.5C 248.852,42.5441 248.185,40.2108 248.5,37.5C 253.205,37.0348 257.705,37.7014 262,39.5C 262.765,39.4301 263.265,39.0967 263.5,38.5C 264.899,37.1103 266.566,36.1103 268.5,35.5 Z"/></g>
<g><path style="opacity:1" fill="#2c25df" d="M 266.5,53.5 C 266.5,50.5 266.5,47.5 266.5,44.5C 264.142,44.2525 262.142,44.9192 260.5,46.5C 260.461,45.4168 260.127,44.4168 259.5,43.5C 260.242,42.7132 261.075,42.0465 262,41.5C 263.667,42.1667 265.333,42.8333 267,43.5C 267.808,47.0267 267.641,50.3601 266.5,53.5 Z"/></g>
<g><path style="opacity:1" fill="#1c15d4" d="M 263.5,38.5 C 263.265,39.0967 262.765,39.4301 262,39.5C 257.705,37.7014 253.205,37.0348 248.5,37.5C 248.185,40.2108 248.852,42.5441 250.5,44.5C 249.5,44.5 248.5,44.5 247.5,44.5C 247.5,43.1667 247.5,41.8333 247.5,40.5C 247.5,39.1667 247.5,37.8333 247.5,36.5C 253.058,36.0573 258.391,36.7239 263.5,38.5 Z"/></g>
<g><path style="opacity:1" fill="#110bf4" d="M 285.5,64.5 C 284.167,64.5 283.5,63.8333 283.5,62.5C 283.823,56.31 283.49,50.31 282.5,44.5C 280.631,42.3647 279.964,39.6981 280.5,36.5C 281.833,36.5 283.167,36.5 284.5,36.5C 284.216,33.2234 284.549,30.0567 285.5,27C 288.817,26.5017 292.15,26.335 295.5,26.5C 294.793,29.7861 294.46,33.1194 294.5,36.5C 295.5,36.5 296.5,36.5 297.5,36.5C 297.5,39.1667 297.5,41.8333 297.5,44.5C 295.549,44.2267 294.049,44.8934 293,46.5C 292.502,49.4816 292.335,52.4816 292.5,55.5C 293.5,55.5 294.5,55.5 295.5,55.5C 295.5,58.5 295.5,61.5 295.5,64.5C 292.167,64.5 288.833,64.5 285.5,64.5 Z"/></g>
<g><path style="opacity:1" fill="#dadada" d="M 52.5,50.5 C 52.8333,51.1667 53.1667,51.8333 53.5,52.5C 52.1971,56.3821 51.5304,60.3821 51.5,64.5C 51.5,64.8333 51.5,65.1667 51.5,65.5C 50.3483,60.0154 50.1816,54.3487 51,48.5C 51.2784,49.4158 51.7784,50.0825 52.5,50.5 Z"/></g>
<g><path style="opacity:1" fill="#d8d7e5" d="M 73.5,47.5 C 73.0612,52.1828 71.5612,56.5162 69,60.5C 68.0228,61.7736 67.1894,61.7736 66.5,60.5C 68.1054,57.6223 69.4388,54.6223 70.5,51.5C 70.7986,49.5447 71.7986,48.2114 73.5,47.5 Z"/></g>
<g><path style="opacity:1" fill="#6d68da" d="M 241.5,50.5 C 241.259,52.8863 241.925,54.8863 243.5,56.5C 243.167,56.5 242.833,56.5 242.5,56.5C 241.307,56.0296 240.64,55.0296 240.5,53.5C 240.52,52.2739 240.853,51.2739 241.5,50.5 Z"/></g>
<g><path style="opacity:1" fill="#3c2fc8" d="M 68.5,48.5 C 69.1667,49.5 69.8333,50.5 70.5,51.5C 69.4388,54.6223 68.1054,57.6223 66.5,60.5C 65.2905,60.9321 64.2905,61.5987 63.5,62.5C 60.2597,64.951 56.5931,66.6176 52.5,67.5C 51.6618,67.1583 51.3284,66.4916 51.5,65.5C 51.5,65.1667 51.5,64.8333 51.5,64.5C 51.8333,64.5 52.1667,64.5 52.5,64.5C 55.8434,63.941 58.8434,62.6077 61.5,60.5C 59.785,58.1182 57.785,56.1182 55.5,54.5C 55.1667,53.5 54.5,52.8333 53.5,52.5C 53.1667,51.8333 52.8333,51.1667 52.5,50.5C 52.4346,50.0618 52.6012,49.7284 53,49.5C 56.1667,52.6667 59.3333,55.8333 62.5,59C 63.9976,59.5847 64.9976,59.0847 65.5,57.5C 66.6976,54.5738 67.6976,51.5738 68.5,48.5 Z"/></g>
<g><path style="opacity:1" fill="#d6d4e3" d="M 28.5,48.5 C 29.0772,52.9837 30.7439,56.9837 33.5,60.5C 33.1034,61.525 32.4368,61.6917 31.5,61C 28.9002,57.9662 27.2335,54.4662 26.5,50.5C 26.7472,49.2867 27.4138,48.62 28.5,48.5 Z"/></g>
<g><path style="opacity:1" fill="#4b43d4" d="M 260.5,52.5 C 261.312,54.7426 261.979,57.0759 262.5,59.5C 262.489,61.0451 262.156,62.3784 261.5,63.5C 261.73,60.3056 261.064,57.3056 259.5,54.5C 259.543,53.5836 259.876,52.9169 260.5,52.5 Z"/></g>
<g><path style="opacity:1" fill="#352ad9" d="M 282.5,44.5 C 283.49,50.31 283.823,56.31 283.5,62.5C 282.833,62.1667 282.167,61.8333 281.5,61.5C 281.907,55.8387 282.24,50.172 282.5,44.5 Z"/></g>
<g><path style="opacity:1" fill="#342ecf" d="M 305.5,56.5 C 303.5,56.5 301.5,56.5 299.5,56.5C 299.5,58.8333 299.5,61.1667 299.5,63.5C 301.5,63.5 303.5,63.5 305.5,63.5C 305.5,64.1667 305.167,64.5 304.5,64.5C 302.5,64.5 300.5,64.5 298.5,64.5C 298.5,61.5 298.5,58.5 298.5,55.5C 301.059,55.1984 303.393,55.5318 305.5,56.5 Z"/></g>
<g><path style="opacity:0.243" fill="#9593bf" d="M 53.5,52.5 C 54.5,52.8333 55.1667,53.5 55.5,54.5C 54.0802,57.6261 53.0802,60.9594 52.5,64.5C 52.1667,64.5 51.8333,64.5 51.5,64.5C 51.5304,60.3821 52.1971,56.3821 53.5,52.5 Z"/></g>
<g><path style="opacity:1" fill="#2321d0" d="M 109.5,55.5 C 109.179,57.0481 108.179,57.7148 106.5,57.5C 106.5,59.5 106.5,61.5 106.5,63.5C 117.167,63.5 127.833,63.5 138.5,63.5C 127.679,64.4946 116.679,64.8279 105.5,64.5C 105.336,61.8127 105.503,59.146 106,56.5C 107.011,55.6634 108.178,55.33 109.5,55.5 Z"/></g>
<g><path style="opacity:1" fill="#2c29cf" d="M 181.5,55.5 C 182.833,55.5 184.167,55.5 185.5,55.5C 185.5,58.5 185.5,61.5 185.5,64.5C 178.833,64.5 172.167,64.5 165.5,64.5C 165.194,61.6146 165.527,58.9479 166.5,56.5C 166.5,58.8333 166.5,61.1667 166.5,63.5C 172.5,63.5 178.5,63.5 184.5,63.5C 184.5,61.1667 184.5,58.8333 184.5,56.5C 183.209,56.7373 182.209,56.404 181.5,55.5 Z"/></g>
<g><path style="opacity:1" fill="#1e1ed0" d="M 242.5,56.5 C 242.833,56.5 243.167,56.5 243.5,56.5C 243.708,58.9201 243.374,61.2534 242.5,63.5C 237.208,64.4948 231.875,64.8282 226.5,64.5C 226.5,64.1667 226.5,63.8333 226.5,63.5C 231.5,63.5 236.5,63.5 241.5,63.5C 241.448,61.0971 241.781,58.7638 242.5,56.5 Z"/></g>
<g><path style="opacity:1" fill="#211fd1" d="M 250.5,50.5 C 250.662,52.5273 250.495,54.5273 250,56.5C 248.989,57.3366 247.822,57.67 246.5,57.5C 246.5,59.5 246.5,61.5 246.5,63.5C 251.5,63.5 256.5,63.5 261.5,63.5C 256.36,64.4881 251.026,64.8214 245.5,64.5C 245.5,61.5 245.5,58.5 245.5,55.5C 246.833,55.5 248.167,55.5 249.5,55.5C 249.216,53.5853 249.549,51.9187 250.5,50.5 Z"/></g>
<g><path style="opacity:1" fill="#332dcb" d="M 266.5,53.5 C 266.5,56.8333 266.5,60.1667 266.5,63.5C 271.153,64.0008 275.486,63.3342 279.5,61.5C 279.5,62.5 279.5,63.5 279.5,64.5C 274.833,64.5 270.167,64.5 265.5,64.5C 265.185,60.6286 265.518,56.9619 266.5,53.5 Z"/></g>
<g><path style="opacity:1" fill="#a3a1cd" d="M 156.5,47.5 C 157.426,53.4647 158.092,59.4647 158.5,65.5C 152.31,65.8229 146.31,65.4896 140.5,64.5C 146.167,64.5 151.833,64.5 157.5,64.5C 157.399,60.2578 156.732,56.0911 155.5,52C 155.508,50.2933 155.842,48.7933 156.5,47.5 Z"/></g>
<g><path style="opacity:1" fill="#635fb7" d="M 22.5,46.5 C 24.5,46.5 26.5,46.5 28.5,46.5C 28.5,46.8333 28.5,47.1667 28.5,47.5C 28.5,47.8333 28.5,48.1667 28.5,48.5C 27.4138,48.62 26.7472,49.2867 26.5,50.5C 27.2335,54.4662 28.9002,57.9662 31.5,61C 32.4368,61.6917 33.1034,61.525 33.5,60.5C 34.8333,60.5 35.5,61.1667 35.5,62.5C 34.475,62.8966 34.3083,63.5632 35,64.5C 38.8666,67.8448 43.3666,69.5115 48.5,69.5C 48.5,70.1667 48.5,70.8333 48.5,71.5C 39.6086,70.9724 32.7753,66.9724 28,59.5C 26.0412,55.0953 24.2079,50.7619 22.5,46.5 Z"/></g>
<g><path style="opacity:1" fill="#3528d0" d="M 28.5,47.5 C 29.1667,47.5 29.8333,47.5 30.5,47.5C 30.2627,48.791 30.596,49.791 31.5,50.5C 32.2271,52.9538 33.2271,55.2872 34.5,57.5C 35.5,58.5 36.5,59.5 37.5,60.5C 40.4052,62.968 43.7386,64.1347 47.5,64C 46.1336,61.0027 45.467,57.836 45.5,54.5C 45.5688,51.9158 46.7355,49.9158 49,48.5C 49.8223,56.3446 49.6557,64.0113 48.5,71.5C 48.5,70.8333 48.5,70.1667 48.5,69.5C 48.5299,68.5028 48.0299,67.8361 47,67.5C 42.8138,66.4989 38.9805,64.8322 35.5,62.5C 35.5,61.1667 34.8333,60.5 33.5,60.5C 30.7439,56.9837 29.0772,52.9837 28.5,48.5C 28.5,48.1667 28.5,47.8333 28.5,47.5 Z M 45.5,54.5 C 45.467,57.836 46.1336,61.0027 47.5,64C 43.7386,64.1347 40.4052,62.968 37.5,60.5C 37.5,60.1667 37.5,59.8333 37.5,59.5C 40.1492,57.86 42.8159,56.1933 45.5,54.5 Z M 41.5,51.5 C 39.7865,54.2128 37.4532,56.2128 34.5,57.5C 33.2271,55.2872 32.2271,52.9538 31.5,50.5C 31.369,49.7611 31.5357,49.0944 32,48.5C 35.2445,49.5717 38.4112,50.5717 41.5,51.5 Z"/></g>
<g><path style="opacity:0.706" fill="#5d50c2" d="M 46.5,48.5 C 43.8782,52.4572 40.8782,56.1239 37.5,59.5C 37.5,59.8333 37.5,60.1667 37.5,60.5C 36.5,59.5 35.5,58.5 34.5,57.5C 37.4532,56.2128 39.7865,54.2128 41.5,51.5C 42.5,51.1667 43.1667,50.5 43.5,49.5C 44.391,48.8902 45.391,48.5569 46.5,48.5 Z"/></g>
<g><path style="opacity:1" fill="#d1d1e2" d="M 63.5,62.5 C 64.3764,62.3691 65.0431,62.7025 65.5,63.5C 61.6604,67.2308 56.9937,69.2308 51.5,69.5C 51.8333,68.8333 52.1667,68.1667 52.5,67.5C 56.5931,66.6176 60.2597,64.951 63.5,62.5 Z"/></g>
<g><path style="opacity:1" fill="#d4cccb" d="M 91.5,64.5 C 135.948,66.4867 180.615,67.1533 225.5,66.5C 258.338,66.1684 291.004,66.5017 323.5,67.5C 245.833,67.5 168.167,67.5 90.5,67.5C 90.5569,66.391 90.8902,65.391 91.5,64.5 Z"/></g>
<g><path style="opacity:1" fill="#d0cce5" d="M 35.5,62.5 C 38.9805,64.8322 42.8138,66.4989 47,67.5C 48.0299,67.8361 48.5299,68.5028 48.5,69.5C 43.3666,69.5115 38.8666,67.8448 35,64.5C 34.3083,63.5632 34.475,62.8966 35.5,62.5 Z"/></g>
<g><path style="opacity:1" fill="#4457d9" d="M 90.5,68.5 C 90.5,68.1667 90.5,67.8333 90.5,67.5C 168.167,67.5 245.833,67.5 323.5,67.5C 323.5,68.5 323.5,69.5 323.5,70.5C 323.167,70.5 322.833,70.5 322.5,70.5C 290.851,68.5073 258.851,67.8406 226.5,68.5C 223.167,68.5 219.833,68.5 216.5,68.5C 174.5,68.5 132.5,68.5 90.5,68.5 Z"/></g>
<g><path style="opacity:1" fill="#0d0bdd" d="M 226.5,68.5 C 258.851,67.8406 290.851,68.5073 322.5,70.5C 322.5,71.1667 322.5,71.8333 322.5,72.5C 321.596,73.209 321.263,74.209 321.5,75.5C 319.167,75.5 316.833,75.5 314.5,75.5C 314.5,73.8333 314.5,72.1667 314.5,70.5C 311.833,69.1667 309.167,69.1667 306.5,70.5C 306.5,71.1667 306.5,71.8333 306.5,72.5C 305.842,73.3984 305.176,74.3984 304.5,75.5C 303.893,75.3764 303.56,75.0431 303.5,74.5C 303.631,73.6236 303.298,72.9569 302.5,72.5C 299.952,74.1852 297.952,73.8519 296.5,71.5C 298.9,70.7317 301.233,70.3983 303.5,70.5C 300.691,69.1997 298.024,69.1997 295.5,70.5C 294.566,71.5676 294.232,72.901 294.5,74.5C 293.5,75.8333 292.5,75.8333 291.5,74.5C 291.775,68.49 290.942,68.1567 289,73.5C 287.833,72.3333 286.667,71.1667 285.5,70C 283.934,69.235 282.601,69.4017 281.5,70.5C 280.837,72.0419 280.17,73.7086 279.5,75.5C 278.893,75.3764 278.56,75.0431 278.5,74.5C 275.427,67.9383 272.093,67.9383 268.5,74.5C 267.833,75.8333 267.167,75.8333 266.5,74.5C 266.712,69.557 265.712,68.8903 263.5,72.5C 261.74,69.9788 259.407,69.1455 256.5,70C 255.62,71.3561 255.286,72.8561 255.5,74.5C 255.44,75.0431 255.107,75.3764 254.5,75.5C 253.548,73.9547 253.215,72.288 253.5,70.5C 251.052,69.5269 248.385,69.1936 245.5,69.5C 245.5,70.5 245.5,71.5 245.5,72.5C 244.596,73.209 244.263,74.209 244.5,75.5C 243.167,75.5 241.833,75.5 240.5,75.5C 240.5,74.1667 240.5,72.8333 240.5,71.5C 241.263,70.7321 242.263,70.2321 243.5,70C 238.706,68.9933 236.706,69.16 237.5,70.5C 237.5,71.8333 237.5,73.1667 237.5,74.5C 236.081,75.4511 234.415,75.7845 232.5,75.5C 232.5,74.5 232.5,73.5 232.5,72.5C 232.719,71.325 232.386,70.325 231.5,69.5C 230.893,69.6236 230.56,69.9569 230.5,70.5C 228.678,71.4286 227.345,70.7619 226.5,68.5 Z"/></g>
<g><path style="opacity:1" fill="#9f9bed" d="M 240.5,71.5 C 240.167,71.5 239.833,71.5 239.5,71.5C 239.158,70.6618 238.492,70.3284 237.5,70.5C 236.706,69.16 238.706,68.9933 243.5,70C 242.263,70.2321 241.263,70.7321 240.5,71.5 Z"/></g>
<g><path style="opacity:1" fill="#9a97ec" d="M 295.5,70.5 C 298.024,69.1997 300.691,69.1997 303.5,70.5C 301.233,70.3983 298.9,70.7317 296.5,71.5C 296.5,70.8333 296.167,70.5 295.5,70.5 Z"/></g>
<g><path style="opacity:1" fill="#d0cbf4" d="M 253.5,70.5 C 251.265,70.2053 249.265,70.5386 247.5,71.5C 247.5,72.5 247.5,73.5 247.5,74.5C 246.167,74.5 245.5,73.8333 245.5,72.5C 245.5,71.5 245.5,70.5 245.5,69.5C 248.385,69.1936 251.052,69.5269 253.5,70.5 Z"/></g>
<g><path style="opacity:1" fill="#9793e4" d="M 306.5,70.5 C 309.167,69.1667 311.833,69.1667 314.5,70.5C 308.792,70.4924 308.459,70.9924 313.5,72C 311.866,72.4935 310.199,72.6602 308.5,72.5C 308.5,71.1667 307.833,70.5 306.5,70.5 Z"/></g>
<g><path style="opacity:1" fill="#bab9e2" d="M 266.5,74.5 C 263.245,74.9864 260.578,73.9864 258.5,71.5C 257.859,72.9935 256.859,73.9935 255.5,74.5C 255.286,72.8561 255.62,71.3561 256.5,70C 259.407,69.1455 261.74,69.9788 263.5,72.5C 265.712,68.8903 266.712,69.557 266.5,74.5 Z"/></g>
<g><path style="opacity:1" fill="#d0d0ef" d="M 278.5,74.5 C 276.623,74.0997 275.123,73.0997 274,71.5C 272.505,73.1632 270.672,74.1632 268.5,74.5C 272.093,67.9383 275.427,67.9383 278.5,74.5 Z"/></g>
<g><path style="opacity:1" fill="#cbccea" d="M 230.5,70.5 C 230.56,69.9569 230.893,69.6236 231.5,69.5C 232.386,70.325 232.719,71.325 232.5,72.5C 229.655,75.1384 226.989,74.8051 224.5,71.5C 223.833,72.5 223.167,73.5 222.5,74.5C 220.735,70.9856 221.735,69.4856 225.5,70C 227.306,72.8177 228.972,72.9843 230.5,70.5 Z"/></g>
<g><path style="opacity:1" fill="#d2d2ef" d="M 291.5,74.5 C 288.592,74.7377 286.258,73.7377 284.5,71.5C 282.596,75.4436 281.596,75.1103 281.5,70.5C 282.601,69.4017 283.934,69.235 285.5,70C 286.667,71.1667 287.833,72.3333 289,73.5C 290.942,68.1567 291.775,68.49 291.5,74.5 Z"/></g>
<g><path style="opacity:1" fill="#1f1ccf" d="M 75.5,68.5 C 75.5,70.8333 75.5,73.1667 75.5,75.5C 80.1667,75.5 84.8333,75.5 89.5,75.5C 89.2627,74.209 89.596,73.209 90.5,72.5C 90.5,73.8333 91.1667,74.5 92.5,74.5C 95.5,75.8333 98.5,75.8333 101.5,74.5C 104.2,73.484 106.866,73.484 109.5,74.5C 110.429,73.3112 110.762,71.9778 110.5,70.5C 111.163,72.0419 111.83,73.7086 112.5,75.5C 113.298,75.0431 113.631,74.3764 113.5,73.5C 116.391,74.4025 119.391,74.7359 122.5,74.5C 123.5,75.8333 124.5,75.8333 125.5,74.5C 126.833,74.1667 128.167,73.8333 129.5,73.5C 129.389,74.1174 129.056,74.6174 128.5,75C 131.146,75.4974 133.813,75.6641 136.5,75.5C 136.263,74.209 136.596,73.209 137.5,72.5C 138.167,75.1667 138.833,75.1667 139.5,72.5C 145.208,72.5076 145.541,72.0076 140.5,71C 142.134,70.5065 143.801,70.3398 145.5,70.5C 145.714,72.1439 145.38,73.6439 144.5,75C 145.749,75.7401 146.749,75.5735 147.5,74.5C 149.912,74.3059 150.912,72.9726 150.5,70.5C 151.833,70.5 153.167,70.5 154.5,70.5C 154.157,72.4832 154.824,73.8166 156.5,74.5C 158.5,75.8333 160.5,75.8333 162.5,74.5C 164.026,73.8953 165.026,72.7286 165.5,71C 166.448,70.5172 167.448,70.3505 168.5,70.5C 167.172,71.5072 166.172,72.8405 165.5,74.5C 167.973,75.7969 170.307,75.7969 172.5,74.5C 173.5,74.5 174.5,74.5 175.5,74.5C 179.5,75.8333 183.5,75.8333 187.5,74.5C 188.5,74.5 189.5,74.5 190.5,74.5C 190.351,73.448 190.517,72.448 191,71.5C 192.95,74.9874 195.283,75.3207 198,72.5C 198.71,73.9733 199.876,74.6399 201.5,74.5C 202.167,75.8333 202.833,75.8333 203.5,74.5C 205.672,74.1632 207.505,73.1632 209,71.5C 210.123,73.0997 211.623,74.0997 213.5,74.5C 213.56,75.0431 213.893,75.3764 214.5,75.5C 215.17,73.7086 215.837,72.0419 216.5,70.5C 216.238,71.9778 216.571,73.3112 217.5,74.5C 217.833,73.6667 218.167,72.8333 218.5,72C 218.316,70.6244 217.649,69.7911 216.5,69.5C 216.5,69.1667 216.5,68.8333 216.5,68.5C 219.833,68.5 223.167,68.5 226.5,68.5C 227.345,70.7619 228.678,71.4286 230.5,70.5C 228.972,72.9843 227.306,72.8177 225.5,70C 221.735,69.4856 220.735,70.9856 222.5,74.5C 223.167,73.5 223.833,72.5 224.5,71.5C 226.989,74.8051 229.655,75.1384 232.5,72.5C 232.5,73.5 232.5,74.5 232.5,75.5C 234.415,75.7845 236.081,75.4511 237.5,74.5C 239.048,74.1788 239.715,73.1788 239.5,71.5C 239.833,71.5 240.167,71.5 240.5,71.5C 240.5,72.8333 240.5,74.1667 240.5,75.5C 241.833,75.5 243.167,75.5 244.5,75.5C 244.263,74.209 244.596,73.209 245.5,72.5C 245.5,73.8333 246.167,74.5 247.5,74.5C 249.167,74.5 250.833,74.5 252.5,74.5C 252.5,73.5 252.5,72.5 252.5,71.5C 250.833,71.5 249.167,71.5 247.5,71.5C 249.265,70.5386 251.265,70.2053 253.5,70.5C 253.215,72.288 253.548,73.9547 254.5,75.5C 255.107,75.3764 255.44,75.0431 255.5,74.5C 256.859,73.9935 257.859,72.9935 258.5,71.5C 260.578,73.9864 263.245,74.9864 266.5,74.5C 267.167,75.8333 267.833,75.8333 268.5,74.5C 270.672,74.1632 272.505,73.1632 274,71.5C 275.123,73.0997 276.623,74.0997 278.5,74.5C 278.56,75.0431 278.893,75.3764 279.5,75.5C 280.17,73.7086 280.837,72.0419 281.5,70.5C 281.596,75.1103 282.596,75.4436 284.5,71.5C 286.258,73.7377 288.592,74.7377 291.5,74.5C 292.5,75.8333 293.5,75.8333 294.5,74.5C 297.5,74.5 300.5,74.5 303.5,74.5C 303.56,75.0431 303.893,75.3764 304.5,75.5C 305.176,74.3984 305.842,73.3984 306.5,72.5C 307.167,75.1667 307.833,75.1667 308.5,72.5C 310.199,72.6602 311.866,72.4935 313.5,72C 308.459,70.9924 308.792,70.4924 314.5,70.5C 314.5,72.1667 314.5,73.8333 314.5,75.5C 316.833,75.5 319.167,75.5 321.5,75.5C 321.263,74.209 321.596,73.209 322.5,72.5C 322.5,73.8333 322.5,75.1667 322.5,76.5C 239.493,77.1639 156.827,76.4973 74.5,74.5C 74.2053,72.2646 74.5386,70.2646 75.5,68.5 Z"/></g>
<g><path style="opacity:1" fill="#e5e7f4" d="M 306.5,70.5 C 307.833,70.5 308.5,71.1667 308.5,72.5C 307.833,75.1667 307.167,75.1667 306.5,72.5C 306.5,71.8333 306.5,71.1667 306.5,70.5 Z"/></g>
<g><path style="opacity:1" fill="#bcbbf0" d="M 295.5,70.5 C 296.167,70.5 296.5,70.8333 296.5,71.5C 297.952,73.8519 299.952,74.1852 302.5,72.5C 303.298,72.9569 303.631,73.6236 303.5,74.5C 300.5,74.5 297.5,74.5 294.5,74.5C 294.232,72.901 294.566,71.5676 295.5,70.5 Z"/></g>
<g><path style="opacity:1" fill="#dfe2f2" d="M 237.5,70.5 C 238.492,70.3284 239.158,70.6618 239.5,71.5C 239.715,73.1788 239.048,74.1788 237.5,74.5C 237.5,73.1667 237.5,71.8333 237.5,70.5 Z"/></g>
<g><path style="opacity:1" fill="#5e56cd" d="M 247.5,71.5 C 249.167,71.5 250.833,71.5 252.5,71.5C 252.5,72.5 252.5,73.5 252.5,74.5C 250.833,74.5 249.167,74.5 247.5,74.5C 247.5,73.5 247.5,72.5 247.5,71.5 Z"/></g>
<g><path style="opacity:1" fill="#605fd2" d="M 98.5,72.5 C 96.7354,73.4614 94.7354,73.7947 92.5,73.5C 92.5,72.5 92.5,71.5 92.5,70.5C 94.7179,70.6138 96.7179,71.2804 98.5,72.5 Z"/></g>
<g><path style="opacity:1" fill="#0b08df" d="M 90.5,69.5 C 90.5,69.1667 90.5,68.8333 90.5,68.5C 132.5,68.5 174.5,68.5 216.5,68.5C 216.5,68.8333 216.5,69.1667 216.5,69.5C 216.5,69.8333 216.5,70.1667 216.5,70.5C 215.837,72.0419 215.17,73.7086 214.5,75.5C 213.893,75.3764 213.56,75.0431 213.5,74.5C 210.384,67.9574 207.051,67.9574 203.5,74.5C 202.833,75.8333 202.167,75.8333 201.5,74.5C 201.5,72.8333 201.5,71.1667 201.5,69.5C 198.579,69.1459 196.246,70.1459 194.5,72.5C 193.369,71.2485 192.036,70.2485 190.5,69.5C 187.915,70.0728 186.915,71.7395 187.5,74.5C 183.5,75.8333 179.5,75.8333 175.5,74.5C 176.031,72.3763 177.365,70.8763 179.5,70C 177.536,69.376 175.869,69.876 174.5,71.5C 173.5,70.8333 172.5,70.1667 171.5,69.5C 171.167,69.8333 170.833,70.1667 170.5,70.5C 171.853,71.5237 172.52,72.857 172.5,74.5C 170.307,75.7969 167.973,75.7969 165.5,74.5C 166.172,72.8405 167.172,71.5072 168.5,70.5C 164.081,69.0824 162.081,69.0824 162.5,70.5C 162.5,71.8333 162.5,73.1667 162.5,74.5C 160.5,75.8333 158.5,75.8333 156.5,74.5C 158.325,70.64 156.992,68.9734 152.5,69.5C 148.49,68.8429 146.824,70.5095 147.5,74.5C 146.749,75.5735 145.749,75.7401 144.5,75C 145.38,73.6439 145.714,72.1439 145.5,70.5C 142.833,69.1667 140.167,69.1667 137.5,70.5C 137.5,71.1667 137.5,71.8333 137.5,72.5C 136.596,73.209 136.263,74.209 136.5,75.5C 133.813,75.6641 131.146,75.4974 128.5,75C 129.056,74.6174 129.389,74.1174 129.5,73.5C 131.262,73.6427 132.929,73.3094 134.5,72.5C 135.521,71.9984 135.688,71.3317 135,70.5C 132.263,69.3895 129.429,69.2228 126.5,70C 125.62,71.3561 125.286,72.8561 125.5,74.5C 124.5,75.8333 123.5,75.8333 122.5,74.5C 123.686,73.0387 123.686,71.7054 122.5,70.5C 119.833,69.1667 117.167,69.1667 114.5,70.5C 113.596,71.209 113.263,72.209 113.5,73.5C 113.631,74.3764 113.298,75.0431 112.5,75.5C 111.83,73.7086 111.163,72.0419 110.5,70.5C 108.034,69.3659 105.367,69.1993 102.5,70C 101.62,71.3561 101.286,72.8561 101.5,74.5C 98.5,75.8333 95.5,75.8333 92.5,74.5C 92.5,74.1667 92.5,73.8333 92.5,73.5C 94.7354,73.7947 96.7354,73.4614 98.5,72.5C 99.7736,71.8106 99.7736,70.9772 98.5,70C 95.854,69.5026 93.1873,69.3359 90.5,69.5 Z"/></g>
<g><path style="opacity:1" fill="#d9dbed" d="M 137.5,70.5 C 138.833,70.5 139.5,71.1667 139.5,72.5C 138.833,75.1667 138.167,75.1667 137.5,72.5C 137.5,71.8333 137.5,71.1667 137.5,70.5 Z"/></g>
<g><path style="opacity:1" fill="#d2d4ee" d="M 213.5,74.5 C 211.623,74.0997 210.123,73.0997 209,71.5C 207.505,73.1632 205.672,74.1632 203.5,74.5C 207.051,67.9574 210.384,67.9574 213.5,74.5 Z"/></g>
<g><path style="opacity:1" fill="#b8b7e4" d="M 201.5,74.5 C 199.876,74.6399 198.71,73.9733 198,72.5C 195.283,75.3207 192.95,74.9874 191,71.5C 190.517,72.448 190.351,73.448 190.5,74.5C 189.5,74.5 188.5,74.5 187.5,74.5C 186.915,71.7395 187.915,70.0728 190.5,69.5C 192.036,70.2485 193.369,71.2485 194.5,72.5C 196.246,70.1459 198.579,69.1459 201.5,69.5C 201.5,71.1667 201.5,72.8333 201.5,74.5 Z"/></g>
<g><path style="opacity:1" fill="#bebbe9" d="M 175.5,74.5 C 174.5,74.5 173.5,74.5 172.5,74.5C 172.52,72.857 171.853,71.5237 170.5,70.5C 170.833,70.1667 171.167,69.8333 171.5,69.5C 172.5,70.1667 173.5,70.8333 174.5,71.5C 175.869,69.876 177.536,69.376 179.5,70C 177.365,70.8763 176.031,72.3763 175.5,74.5 Z"/></g>
<g><path style="opacity:1" fill="#c4c2eb" d="M 156.5,74.5 C 154.824,73.8166 154.157,72.4832 154.5,70.5C 153.167,70.5 151.833,70.5 150.5,70.5C 150.912,72.9726 149.912,74.3059 147.5,74.5C 146.824,70.5095 148.49,68.8429 152.5,69.5C 156.992,68.9734 158.325,70.64 156.5,74.5 Z"/></g>
<g><path style="opacity:1" fill="#9391e5" d="M 137.5,70.5 C 140.167,69.1667 142.833,69.1667 145.5,70.5C 143.801,70.3398 142.134,70.5065 140.5,71C 145.541,72.0076 145.208,72.5076 139.5,72.5C 139.5,71.1667 138.833,70.5 137.5,70.5 Z"/></g>
<g><path style="opacity:1" fill="#c7c5f1" d="M 114.5,70.5 C 115.167,71.5 115.833,72.5 116.5,73.5C 117.833,73.5 119.167,73.5 120.5,73.5C 121.167,72.5 121.833,71.5 122.5,70.5C 123.686,71.7054 123.686,73.0387 122.5,74.5C 119.391,74.7359 116.391,74.4025 113.5,73.5C 113.263,72.209 113.596,71.209 114.5,70.5 Z"/></g>
<g><path style="opacity:1" fill="#aeace3" d="M 110.5,70.5 C 110.762,71.9778 110.429,73.3112 109.5,74.5C 106.866,73.484 104.2,73.484 101.5,74.5C 101.286,72.8561 101.62,71.3561 102.5,70C 105.367,69.1993 108.034,69.3659 110.5,70.5 Z"/></g>
<g><path style="opacity:1" fill="#403fc3" d="M 104.5,70.5 C 105.978,70.238 107.311,70.5713 108.5,71.5C 107.833,71.8333 107.167,72.1667 106.5,72.5C 105.287,72.2528 104.62,71.5862 104.5,70.5 Z"/></g>
<g><path style="opacity:1" fill="#d4d3f1" d="M 216.5,69.5 C 217.649,69.7911 218.316,70.6244 218.5,72C 218.167,72.8333 217.833,73.6667 217.5,74.5C 216.571,73.3112 216.238,71.9778 216.5,70.5C 216.5,70.1667 216.5,69.8333 216.5,69.5 Z"/></g>
<g><path style="opacity:1" fill="#b0aceb" d="M 168.5,70.5 C 167.448,70.3505 166.448,70.5172 165.5,71C 165.026,72.7286 164.026,73.8953 162.5,74.5C 162.5,73.1667 162.5,71.8333 162.5,70.5C 162.081,69.0824 164.081,69.0824 168.5,70.5 Z"/></g>
<g><path style="opacity:1" fill="#a9a6ea" d="M 129.5,73.5 C 128.167,73.8333 126.833,74.1667 125.5,74.5C 125.286,72.8561 125.62,71.3561 126.5,70C 129.429,69.2228 132.263,69.3895 135,70.5C 135.688,71.3317 135.521,71.9984 134.5,72.5C 132.929,73.3094 131.262,73.6427 129.5,73.5 Z"/></g>
<g><path style="opacity:1" fill="#3c3cc1" d="M 128.5,70.5 C 129.978,70.238 131.311,70.5713 132.5,71.5C 131.833,71.8333 131.167,72.1667 130.5,72.5C 129.287,72.2528 128.62,71.5862 128.5,70.5 Z"/></g>
<g><path style="opacity:1" fill="#827fdd" d="M 114.5,70.5 C 117.167,69.1667 119.833,69.1667 122.5,70.5C 121.833,71.5 121.167,72.5 120.5,73.5C 120.5,72.5 120.5,71.5 120.5,70.5C 119.167,70.5 117.833,70.5 116.5,70.5C 116.5,71.5 116.5,72.5 116.5,73.5C 115.833,72.5 115.167,71.5 114.5,70.5 Z"/></g>
<g><path style="opacity:1" fill="#1714d7" d="M 120.5,73.5 C 119.167,73.5 117.833,73.5 116.5,73.5C 116.5,72.5 116.5,71.5 116.5,70.5C 117.833,70.5 119.167,70.5 120.5,70.5C 120.5,71.5 120.5,72.5 120.5,73.5 Z"/></g>
<g><path style="opacity:1" fill="#b6b1ec" d="M 90.5,69.5 C 93.1873,69.3359 95.854,69.5026 98.5,70C 99.7736,70.9772 99.7736,71.8106 98.5,72.5C 96.7179,71.2804 94.7179,70.6138 92.5,70.5C 92.5,71.5 92.5,72.5 92.5,73.5C 92.5,73.8333 92.5,74.1667 92.5,74.5C 91.1667,74.5 90.5,73.8333 90.5,72.5C 90.5,71.5 90.5,70.5 90.5,69.5 Z"/></g>
<g><path style="opacity:1" fill="#bbbadd" d="M 322.5,70.5 C 322.833,70.5 323.167,70.5 323.5,70.5C 323.5,72.8333 323.5,75.1667 323.5,77.5C 239.998,77.8327 156.665,77.4993 73.5,76.5C 73.3284,75.5084 73.6618,74.8417 74.5,74.5C 156.827,76.4973 239.493,77.1639 322.5,76.5C 322.5,75.1667 322.5,73.8333 322.5,72.5C 322.5,71.8333 322.5,71.1667 322.5,70.5 Z"/></g>
<g><path style="opacity:1" fill="#adadab" d="M 224.5,57.5 C 225.167,59.8333 225.833,62.1667 226.5,64.5C 244.326,65.4968 262.326,65.8301 280.5,65.5C 280.433,64.0413 280.766,62.7079 281.5,61.5C 282.167,61.8333 282.833,62.1667 283.5,62.5C 283.5,63.8333 284.167,64.5 285.5,64.5C 291.833,65.8333 298.167,65.8333 304.5,64.5C 305.167,64.5 305.5,64.1667 305.5,63.5C 309.721,65.5703 314.055,65.9037 318.5,64.5C 320.903,64.607 322.736,63.607 324,61.5C 324.399,61.7284 324.565,62.0618 324.5,62.5C 324.047,63.4584 323.381,64.2917 322.5,65C 323.938,65.2189 325.271,65.7189 326.5,66.5C 325.688,70.8058 325.021,75.1391 324.5,79.5C 240.167,79.5 155.833,79.5 71.5,79.5C 71.5,78.1667 71.5,76.8333 71.5,75.5C 72.1667,75.8333 72.8333,76.1667 73.5,76.5C 156.665,77.4993 239.998,77.8327 323.5,77.5C 323.5,75.1667 323.5,72.8333 323.5,70.5C 323.5,69.5 323.5,68.5 323.5,67.5C 291.004,66.5017 258.338,66.1684 225.5,66.5C 224.211,63.4554 223.878,60.4554 224.5,57.5 Z"/></g>
</svg>
